<?xml version="1.0" encoding="UTF-8"?>
<svg width="1200pt" height="1200pt" version="1.1" viewBox="0 0 1200 1200" xmlns="http://www.w3.org/2000/svg">
 <path d="m1098 576c7.1992-24-1.1992-51.602-20.398-70.801 3.6016-16.801 4.8008-44.398-9.6016-68.398-15.602-25.199-43.199-40.801-84-46.801-3.6016-14.398-8.3984-28.801-18-42-19.199-28.801-48-46.801-86.398-54-92.402-18-145.2 28.801-166.8 66-37.199-8.3984-73.199-1.1992-91.199 9.6016-43.199 25.199-56.398 60-57.602 87.602-13.199 2.3984-25.199 7.1992-34.801 12 0 19.199 2.3984 38.398 6 57.602 8.3984-14.398 27.602-22.801 56.398-24 7.1992 0 14.398-3.6016 18-9.6016 3.6016-6 6-13.199 3.6016-20.398-1.1992-3.6016-8.3984-36 32.398-60 10.801-6 61.199-16.801 94.801 18 9.6016 9.6016 24 9.6016 33.602 1.1992 9.6016-9.6016 9.6016-24 1.1992-33.602-6-6-12-10.801-18-15.602 13.199-19.199 45.602-52.801 112.8-39.602 84 16.801 70.801 100.8 68.398 110.4-2.3984 13.199 6 25.199 19.199 28.801h4.8008c10.801 0 21.602-8.3984 24-19.199 0-1.1992 1.1992-9.6016 2.3984-21.602 15.602 3.6016 31.199 9.6016 38.398 22.801 10.801 18 1.1992 43.199 1.1992 43.199-4.8008 10.801-1.1992 22.801 9.6016 30 13.199 8.3984 16.801 20.398 14.398 27.602-2.3984 9.6016-18 15.602-38.398 15.602h-460.8c-1.1992 0-2.3984 0-3.6016-1.1992 6 14.398 12 27.602 20.398 42 1.1992 2.3984 2.3984 4.8008 4.8008 7.1992h439.2c43.203-3.6016 74.402-21.602 84.004-52.801z"/>
 <path d="m1075.2 690c-9.6016-6-21.602-6-30 2.3984-16.801 15.602-34.801 28.801-54 39.602-46.801 27.602-99.602 42-153.6 42-106.8 0-207.6-56.398-262.8-147.6-1.1992-2.3984-3.6016-4.8008-4.8008-7.1992-7.1992-13.199-14.398-27.602-20.398-42-6-16.801-12-33.602-15.602-50.398-3.6016-19.199-6-38.398-6-57.602-1.1992-108 54-213.6 154.8-271.2 19.199-10.801 39.602-20.398 61.199-26.398 10.801-3.6016 18-13.199 16.801-25.199-1.1992-10.801-9.6016-20.398-20.398-21.602-97.199-14.398-196.8 4.8008-282 54-100.8 58.801-174 152.4-204 266.4-26.398 99.602-18 204 25.199 297.6 12-9.6016 26.398-18 42-24-37.199-84-44.398-175.2-21.598-262.8 26.398-100.8 91.199-184.8 181.2-236.4 48-27.602 100.8-44.398 156-50.398-117.6 79.199-174 219.6-152.4 354 4.8008 30 13.199 58.801 26.398 87.602 4.8008 10.801 10.801 22.801 16.801 33.602 63.602 110.4 182.4 178.8 309.6 178.8 54 0 108-12 156-36-32.398 44.398-73.199 81.602-121.2 109.2-28.801 16.801-60 30-92.398 38.398 10.801 13.199 16.801 28.801 19.199 44.398 33.602-9.6016 66-24 97.199-40.801 86.398-49.199 151.2-124.8 188.4-217.2 3.5977-13.203 0-25.203-9.6016-31.203z"/>
 <path d="m799.2 976.8c-2.3984-15.602-8.3984-31.199-19.199-44.398-14.398-18-38.398-32.398-72-38.398-1.1992-30-15.602-70.801-64.801-99.602-20.398-12-62.398-20.398-104.4-9.6016-22.801-40.801-82.801-97.199-187.2-76.801-10.801 2.3984-20.398 4.8008-28.801 8.3984-15.602 6-30 14.398-42 24-9.6016 8.3984-18 18-25.199 27.602-10.801 15.602-16.801 33.602-20.398 49.199-46.801 6-79.199 24-96 52.801-16.801 27.602-14.398 58.801-9.6016 78-22.801 21.602-32.398 51.602-24 78 9.6016 34.801 44.398 55.199 93.602 55.199h526.8c40.801 0 76.801-40.801 78-88.801-3.6055-4.7969-4.8047-9.5977-4.8047-15.598zm-76.801 56.398h-525.6c-26.398 0-44.398-7.1992-48-20.398-3.6016-12 4.8008-27.602 18-36 9.6016-6 13.199-19.199 9.6016-30 0 0-12-30 1.1992-52.801 9.6016-15.602 30-24 50.398-27.602 0 15.602 2.3984 26.398 2.3984 27.602 2.3984 10.801 12 19.199 24 19.199h4.8008c13.199-2.3984 21.602-15.602 19.199-28.801 0 0-9.6016-52.801 15.602-91.199 2.3984-3.6016 6-7.1992 9.6016-10.801 10.801-10.801 24-19.199 40.801-25.199 4.8008-1.1992 9.6016-2.3984 15.602-3.6016 82.801-15.602 121.2 27.602 134.4 49.199-8.3984 4.8008-15.602 12-22.801 19.199-9.6016 9.6016-8.3984 25.199 1.1992 33.602 9.6016 9.6016 25.199 8.3984 33.602-1.1992 39.602-42 99.602-27.602 112.8-20.398 49.199 28.801 40.801 68.398 39.602 72-2.3984 7.1992-1.1992 14.398 3.6016 20.398s10.801 9.6016 18 9.6016c12 0 24 2.3984 33.602 4.8008 24 7.1992 38.398 22.801 39.602 43.199v3.6016c-2.4102 25.199-16.809 45.598-31.211 45.598z"/>
</svg>
